<?xml version="1.0" encoding="UTF-8"?>
<svg
    width="24"
    height="24"
    viewBox="0 0 24 24"
    fill="none"
    xmlns="http://www.w3.org/2000/svg">

  <path
    d="M12 15.5a3.5 3.5 0 1 0 0-7 3.5 3.5 0 0 0 0 7Z"
    stroke="currentColor"
    stroke-width="1.8"
    stroke-linecap="round"
    stroke-linejoin="round"/>

  <path
    d="M19.4 15a1.7 1.7 0 0 0 .34 1.87l.05.05a2 2 0 0 1-2.83 2.83l-.05-.05a1.7 1.7 0 0 0-1.87-.34 1.7 1.7 0 0 0-1 1.54V21a2 2 0 0 1-4 0v-.07a1.7 1.7 0 0 0-1-1.54 1.7 1.7 0 0 0-1.87.34l-.05.05a2 2 0 1 1-2.83-2.83l.05-.05A1.7 1.7 0 0 0 4.6 15a1.7 1.7 0 0 0-1.54-1H3a2 2 0 0 1 0-4h.07a1.7 1.7 0 0 0 1.54-1 1.7 1.7 0 0 0-.34-1.87l-.05-.05a2 2 0 1 1 2.83-2.83l.05.05A1.7 1.7 0 0 0 9 4.6a1.7 1.7 0 0 0 1-1.54V3a2 2 0 0 1 4 0v.07a1.7 1.7 0 0 0 1 1.54 1.7 1.7 0 0 0 1.87-.34l.05-.05a2 2 0 0 1 2.83 2.83l-.05.05A1.7 1.7 0 0 0 19.4 9c.47 0 .9.18 1.23.46.33.28.77.43 1.21.43H22a2 2 0 0 1 0 4h-.16c-.44 0-.88.15-1.21.43-.33.28-.76.46-1.23.46Z"
    stroke="currentColor"
    stroke-width="1.8"
    stroke-linecap="round"
    stroke-linejoin="round"/>
</svg>
